<svg xmlns="http://www.w3.org/2000/svg" id="artboard-svg" width="38" height="39" viewBox="0 0 38 39"><defs><style>.cls-1, .cls-15, .cls-18, .cls-19, .cls-20, .cls-21, .cls-24, .cls-26, .cls-28, .cls-35, .cls-37, .cls-38, .cls-39, .cls-40, .cls-41, .cls-42 { fill: none; } .cls-2 { clip-path: url(#clip-_01.DanhSachTaiSan); } .cls-10, .cls-23, .cls-3, .cls-33, .cls-34, .cls-43, .cls-44, .cls-8 { fill: #fff; } .cls-3, .cls-8 { stroke: #afafaf; } .cls-4 { fill: #f5f5f5; } .cls-25, .cls-5 { fill: #001031; } .cls-11, .cls-13, .cls-14, .cls-23, .cls-5 { font-size: 13px; } .cls-13, .cls-30, .cls-5, .cls-7, .cls-9 { font-family: Roboto-Bold, Roboto; font-weight: 700; } .cls-6, .cls-9 { font-size: 11px; } .cls-11, .cls-23, .cls-6 { font-family: Roboto-Regular, Roboto; } .cls-40, .cls-44, .cls-8 { stroke-width: 0.75px; } .cls-12 { fill: rgba(0,0,0,0.54); } .cls-14 { font-family: Roboto-Italic, Roboto; font-style: italic; } .cls-14, .cls-36 { opacity: 0.54; } .cls-15, .cls-18, .cls-19, .cls-20, .cls-21, .cls-24, .cls-28 { stroke: #000; } .cls-15, .cls-19, .cls-21, .cls-24, .cls-26, .cls-37, .cls-38, .cls-39, .cls-40 { stroke-linecap: round; } .cls-15, .cls-24, .cls-26, .cls-38 { stroke-linejoin: round; } .cls-15, .cls-19, .cls-26, .cls-28, .cls-38, .cls-39, .cls-40, .cls-41, .cls-44 { stroke-miterlimit: 10; } .cls-16 { fill: #090f39; } .cls-17 { opacity: 0.6; clip-path: url(#clip-path); } .cls-18 { stroke-width: 0.2px; } .cls-22, .cls-27 { fill: #1aa4c8; } .cls-25, .cls-30 { font-size: 14px; } .cls-25 { font-family: Roboto-Medium, Roboto; font-weight: 500; } .cls-26 { stroke: #ff3131; } .cls-27, .cls-35 { opacity: 0.2; } .cls-29 { fill: #cdd3d6; } .cls-31 { fill: #1c3048; } .cls-32 { fill: url(#linear-gradient); } .cls-33 { opacity: 0; } .cls-34 { fill-rule: evenodd; } .cls-37, .cls-38, .cls-39, .cls-40, .cls-41, .cls-42, .cls-43, .cls-44 { stroke: #fff; } .cls-37, .cls-38, .cls-39, .cls-41, .cls-42, .cls-43 { stroke-width: 1.75px; } .cls-45 { stroke: none; } .cls-46 { fill: #f4f7ff; } .cls-47 { filter: url(#Rectangle_19628); } .cls-48 { filter: url(#Rectangle_301); } .cls-49 { filter: url(#Rectangle_22927-2); } .cls-50 { filter: url(#Rectangle_22927); } .cls-51 { filter: url(#Rectangle_262); }</style><filter id="Rectangle_262" width="1292" height="577" x="70" y="93" filterUnits="userSpaceOnUse"><feOffset dy="3"/><feGaussianBlur result="blur" stdDeviation="5"/><feFlood flood-color="#0a5384" flood-opacity=".161"/><feComposite in2="blur" operator="in"/><feComposite in="SourceGraphic"/></filter><clipPath id="clip-path"><path d="M0 0h1260v473H0z" class="cls-1"/></clipPath><filter id="Rectangle_22927" width="54" height="54" x="1255" y="50" filterUnits="userSpaceOnUse"><feOffset dy="2"/><feGaussianBlur result="blur-2" stdDeviation="3"/><feFlood flood-opacity=".161"/><feComposite in2="blur-2" operator="in"/><feComposite in="SourceGraphic"/></filter><filter id="Rectangle_22927-2" width="54" height="54" x="1301" y="50" filterUnits="userSpaceOnUse"><feOffset dy="2"/><feGaussianBlur result="blur-3" stdDeviation="3"/><feFlood flood-opacity=".161"/><feComposite in2="blur-3" operator="in"/><feComposite in="SourceGraphic"/></filter><filter id="Rectangle_301" width="128" height="54" x="1134" y="50" filterUnits="userSpaceOnUse"><feOffset dy="2"/><feGaussianBlur result="blur-4" stdDeviation="3"/><feFlood flood-opacity=".161"/><feComposite in2="blur-4" operator="in"/><feComposite in="SourceGraphic"/></filter><filter id="Rectangle_19628" width="84" height="686" x="-9" y="-6" filterUnits="userSpaceOnUse"><feOffset dy="3"/><feGaussianBlur result="blur-5" stdDeviation="3"/><feFlood flood-opacity=".161"/><feComposite in2="blur-5" operator="in"/><feComposite in="SourceGraphic"/></filter><linearGradient id="linear-gradient" x1=".233" x2=".785" y1=".101" y2=".905" gradientUnits="objectBoundingBox"><stop offset="0" stop-color="#25b6e2"/><stop offset="1" stop-color="#177f9f"/></linearGradient><clipPath id="clip-_01.DanhSachTaiSan"><path d="M0 0h1366v668H0z"/></clipPath></defs><g transform="translate(-14 -10)"><g id="_01.DanhSachTaiSan" class="cls-2" data-name="01.DanhSachTaiSan"><g id="Group_46661" data-name="Group 46661"><g id="Group_40409" data-name="Group 40409" transform="translate(15 10.5)"><path id="Path_71830" d="M18 0A18 18 0 1 1 0 18 18 18 0 0 1 18 0z" class="cls-32" data-name="Path 71830"/><g id="Group_40407" data-name="Group 40407" transform="translate(6.132 6.133)"><g id="Group_40399" data-name="Group 40399"><path id="Rectangle_19560" d="M0 0h24v24H0z" class="cls-33" data-name="Rectangle 19560"/><g id="Group_40398" data-name="Group 40398" transform="translate(.265)"><path id="Path_71823" d="M185.911 290.128a6.543 6.543 0 1 1-6.559 6.545 6.543 6.543 0 0 1 6.559-6.545zm-11.56-2.506l9.211-7.225c2.214-1.834 3.272-1.154 4.992.194l4.524 3.511v-.477a.663.663 0 0 1 .692-.626h1.8a.664.664 0 0 1 .692.626v2.865a.547.547 0 0 1-.005.08l1.148.891c1.027.965-.266 2.064-1.188 1.254l-8.891-6.9c-1.036-.852-1.412-1.189-2.474-.248l-.061.052-9.244 7.252c-1.09.7-1.936-.519-1.2-1.249zm13.014-4.63c-1-1-1.584-.958-2.578-.034l-8.669 6.865v5.6a2.457 2.457 0 0 0 2.5 2.286 7.4 7.4 0 1 1 14.624 0h.451a2.474 2.474 0 0 0 2.612-2.289v-5.459l-8.937-6.973zm1.1 13.681l-2.552-2.547-2.553 2.547 2.553 2.547z" class="cls-34" data-name="Path 71823" transform="translate(-174.071 -279.28)"/></g></g></g></g></g></g></g></svg>