<svg xmlns="http://www.w3.org/2000/svg" id="artboard-svg" width="26" height="26" viewBox="0 0 26 26"><defs><style>.cls-1, .cls-15, .cls-18, .cls-19, .cls-20, .cls-21, .cls-24, .cls-26, .cls-28, .cls-35, .cls-37, .cls-38, .cls-39, .cls-40, .cls-41, .cls-42 { fill: none; } .cls-2 { clip-path: url(#clip-_01.DanhSachTaiSan); } .cls-10, .cls-23, .cls-3, .cls-33, .cls-34, .cls-43, .cls-44, .cls-8 { fill: #fff; } .cls-3, .cls-8 { stroke: #afafaf; } .cls-4 { fill: #f5f5f5; } .cls-25, .cls-5 { fill: #001031; } .cls-11, .cls-13, .cls-14, .cls-23, .cls-5 { font-size: 13px; } .cls-13, .cls-30, .cls-5, .cls-7, .cls-9 { font-family: Roboto-Bold, Roboto; font-weight: 700; } .cls-6, .cls-9 { font-size: 11px; } .cls-11, .cls-23, .cls-6 { font-family: Roboto-Regular, Roboto; } .cls-40, .cls-44, .cls-8 { stroke-width: 0.75px; } .cls-12 { fill: rgba(0,0,0,0.54); } .cls-14 { font-family: Roboto-Italic, Roboto; font-style: italic; } .cls-14, .cls-36 { opacity: 0.54; } .cls-15, .cls-18, .cls-19, .cls-20, .cls-21, .cls-24, .cls-28 { stroke: #000; } .cls-15, .cls-19, .cls-21, .cls-24, .cls-26, .cls-37, .cls-38, .cls-39, .cls-40 { stroke-linecap: round; } .cls-15, .cls-24, .cls-26, .cls-38 { stroke-linejoin: round; } .cls-15, .cls-19, .cls-26, .cls-28, .cls-38, .cls-39, .cls-40, .cls-41, .cls-44 { stroke-miterlimit: 10; } .cls-16 { fill: #090f39; } .cls-17 { opacity: 0.6; clip-path: url(#clip-path); } .cls-18 { stroke-width: 0.2px; } .cls-22, .cls-27 { fill: #1aa4c8; } .cls-25, .cls-30 { font-size: 14px; } .cls-25 { font-family: Roboto-Medium, Roboto; font-weight: 500; } .cls-26 { stroke: #ff3131; } .cls-27, .cls-35 { opacity: 0.2; } .cls-29 { fill: #cdd3d6; } .cls-31 { fill: #1c3048; } .cls-32 { fill: url(#linear-gradient); } .cls-33 { opacity: 0; } .cls-34 { fill-rule: evenodd; } .cls-37, .cls-38, .cls-39, .cls-40, .cls-41, .cls-42, .cls-43, .cls-44 { stroke: #fff; } .cls-37, .cls-38, .cls-39, .cls-41, .cls-42, .cls-43 { stroke-width: 1.75px; } .cls-45 { stroke: none; } .cls-46 { fill: #f4f7ff; } .cls-47 { filter: url(#Rectangle_19628); } .cls-48 { filter: url(#Rectangle_301); } .cls-49 { filter: url(#Rectangle_22927-2); } .cls-50 { filter: url(#Rectangle_22927); } .cls-51 { filter: url(#Rectangle_262); }</style><filter id="Rectangle_262" width="1292" height="577" x="70" y="93" filterUnits="userSpaceOnUse"><feOffset dy="3"/><feGaussianBlur result="blur" stdDeviation="5"/><feFlood flood-color="#0a5384" flood-opacity=".161"/><feComposite in2="blur" operator="in"/><feComposite in="SourceGraphic"/></filter><clipPath id="clip-path"><path d="M0 0h1260v473H0z" class="cls-1"/></clipPath><filter id="Rectangle_22927" width="54" height="54" x="1255" y="50" filterUnits="userSpaceOnUse"><feOffset dy="2"/><feGaussianBlur result="blur-2" stdDeviation="3"/><feFlood flood-opacity=".161"/><feComposite in2="blur-2" operator="in"/><feComposite in="SourceGraphic"/></filter><filter id="Rectangle_22927-2" width="54" height="54" x="1301" y="50" filterUnits="userSpaceOnUse"><feOffset dy="2"/><feGaussianBlur result="blur-3" stdDeviation="3"/><feFlood flood-opacity=".161"/><feComposite in2="blur-3" operator="in"/><feComposite in="SourceGraphic"/></filter><filter id="Rectangle_301" width="128" height="54" x="1134" y="50" filterUnits="userSpaceOnUse"><feOffset dy="2"/><feGaussianBlur result="blur-4" stdDeviation="3"/><feFlood flood-opacity=".161"/><feComposite in2="blur-4" operator="in"/><feComposite in="SourceGraphic"/></filter><filter id="Rectangle_19628" width="84" height="686" x="-9" y="-6" filterUnits="userSpaceOnUse"><feOffset dy="3"/><feGaussianBlur result="blur-5" stdDeviation="3"/><feFlood flood-opacity=".161"/><feComposite in2="blur-5" operator="in"/><feComposite in="SourceGraphic"/></filter><linearGradient id="linear-gradient" x1=".233" x2=".785" y1=".101" y2=".905" gradientUnits="objectBoundingBox"><stop offset="0" stop-color="#25b6e2"/><stop offset="1" stop-color="#177f9f"/></linearGradient><clipPath id="clip-_01.DanhSachTaiSan"><path d="M0 0h1366v668H0z"/></clipPath></defs><g transform="translate(-20 -112)"><g id="_01.DanhSachTaiSan" class="cls-2" data-name="01.DanhSachTaiSan"><g id="Group_46661" data-name="Group 46661"><g id="TaiSan-On" transform="translate(21 113)"><path id="Rectangle_22935-18" d="M0 0h24v24H0z" class="cls-1" data-name="Rectangle 22935"/><g id="Group_46612" data-name="Group 46612" transform="translate(-904.089 -365.39)"><g id="Group_46607" data-name="Group 46607"><path id="Path_80170" d="M920.86 379.92a4.488 4.488 0 0 0-.16-.89 5.428 5.428 0 0 0-5.08-3.9l-2-.03a5.426 5.426 0 0 0-5.23 3.82 4.162 4.162 0 0 0-.2.93 4.549 4.549 0 0 0-.04.53c0 .15 0 .29.01.43a5.4 5.4 0 0 0 2.31 4.09 1.187 1.187 0 0 1 .46-.1h.02a1.133 1.133 0 0 1 .85.42 1.067 1.067 0 0 1 .21.41 5.2 5.2 0 0 0 1.42.22l2 .03h.1a5.377 5.377 0 0 0 5.36-5.09 1.209 1.209 0 0 0 .01-.19 3.821 3.821 0 0 0-.04-.68zm-5.4 4.21l-2-.03a3.6 3.6 0 0 1-2.54-1.11 3.53 3.53 0 0 1-1.01-2.38 1.281 1.281 0 0 1-.01-.2 3.826 3.826 0 0 1 .07-.68 3.678 3.678 0 0 1 .31-.86 3.386 3.386 0 0 1 .73-1 3.593 3.593 0 0 1 2.58-1.02l2 .03a3.626 3.626 0 0 1 3.23 2.12 3.4 3.4 0 0 1 .27.89 3.074 3.074 0 0 1 .06.68 1.209 1.209 0 0 1-.01.19 3.6 3.6 0 0 1-3.68 3.37z" class="cls-10" data-name="Path 80170"/></g><g id="Group_46608" data-name="Group 46608"><path id="Path_80171" d="M925.96 384.17l-.02 1.16a1.029 1.029 0 0 1-1.07.98l-1.08-.02-.87-.01-.89-.02a.469.469 0 0 0 .02-.17v-.04a1.06 1.06 0 0 0-.23-.66.391.391 0 0 0-.08-.1 1.132 1.132 0 0 0-.79-.35h-.02a1.076 1.076 0 0 0-.86.42 1.139 1.139 0 0 0-.27.69.553.553 0 0 0 .02.18l-.88-.02-.89-.01-4.25-.07-.88-.02-.88-.01a.771.771 0 0 0 .02-.15v-.02a.789.789 0 0 0-.05-.3 1.067 1.067 0 0 0-.21-.41 1.133 1.133 0 0 0-.85-.42h-.02a1.187 1.187 0 0 0-.46.1 1.212 1.212 0 0 0-.32.22.433.433 0 0 0-.06.07 1.066 1.066 0 0 0-.28.72.756.756 0 0 0 .01.15l-.88-.02-.88-.01-.57-.01a1.511 1.511 0 0 1-1.53-1.5l.04-1.87a3.011 3.011 0 0 1 2.19-2.8 3.244 3.244 0 0 1 .99-.13l.79.01 9.12.16 1.77.03.78.01a4.279 4.279 0 0 1 4.32 4.24z" class="cls-10" data-name="Path 80171"/><path id="Path_80172" d="M920.12 386.85a1.068 1.068 0 0 1-.3-.62.553.553 0 0 1-.02-.18 1.139 1.139 0 0 1 .27-.69l-1-.02-.92-.01h-.26l-4.17-.08-.91-.01-1.01-.02a1.067 1.067 0 0 1 .21.41.789.789 0 0 1 .05.3v.02a.771.771 0 0 1-.02.15 1.076 1.076 0 0 1-.33.64 1.276 1.276 0 0 1-.34.23l1.26.02.97.01 4.64.08.98.02 1.31.02a1.218 1.218 0 0 1-.41-.27zm5.32-6.18a5.371 5.371 0 0 0-3.78-1.62l-.96-.02-1.88-.03-8.54-.13-1.08-.02h-.07a3.639 3.639 0 0 0-.74.07 3.9 3.9 0 0 0-3.27 3.71l-.03 1.87a2.27 2.27 0 0 0 .65 1.65 2.439 2.439 0 0 0 1.73.75l.76.01.97.02 1.26.02a1 1 0 0 1-.34-.24 1.063 1.063 0 0 1-.3-.65.756.756 0 0 1-.01-.15 1.066 1.066 0 0 1 .28-.72l-1.01-.01-.91-.02-.67-.01a.757.757 0 0 1-.5-.21.53.53 0 0 1-.16-.4l.03-1.88a2.077 2.077 0 0 1 1.29-1.85 2.255 2.255 0 0 1 .97-.21h.04l.74.01 9.23.15 1.75.03.74.01a3.6 3.6 0 0 1 2.55 1.09 3.146 3.146 0 0 1 .9 2.27l-.02 1.16a.161.161 0 0 1-.17.12l-1.16-.02-.91-.01-1-.02a1.06 1.06 0 0 1 .23.66v.04a.469.469 0 0 1-.02.17 1.012 1.012 0 0 1-.32.62 1.163 1.163 0 0 1-.41.25l1.31.02h.01l.97.02 1.27.02h.03a1.892 1.892 0 0 0 1.92-1.84l.02-1.16a4.907 4.907 0 0 0-1.39-3.52z" class="cls-10" data-name="Path 80172"/></g><g id="Group_46609" data-name="Group 46609"><path id="Path_80173" d="M912.81 385.24a2.011 2.011 0 0 0-1.84-1.31 1.982 1.982 0 0 0-1.89 1.25 1.706 1.706 0 0 0-.15.71.756.756 0 0 0 .01.15 1.812 1.812 0 0 0 .26.89 2 2 0 0 0 3.43.06 2.038 2.038 0 0 0 .29-.88.756.756 0 0 0 .01-.15 2.133 2.133 0 0 0-.12-.72zm-1.1 1.5a1.276 1.276 0 0 1-.34.23 1.066 1.066 0 0 1-.46.08.988.988 0 0 1-.45-.1 1 1 0 0 1-.34-.24 1.063 1.063 0 0 1-.3-.65.756.756 0 0 1-.01-.15 1.066 1.066 0 0 1 .28-.72.433.433 0 0 1 .06-.07 1.14 1.14 0 0 1 .78-.32h.02a1.133 1.133 0 0 1 .85.42 1.1 1.1 0 0 1 .26.71v.02a.771.771 0 0 1-.02.15 1.076 1.076 0 0 1-.33.64z" class="cls-10" data-name="Path 80173"/><path id="Path_80174" d="M913.72 385.25a2.865 2.865 0 0 0-5.55-.09 2.462 2.462 0 0 0-.11.72v.15a2.852 2.852 0 0 0 2.82 2.77h.05a2.851 2.851 0 0 0 2.67-1.8 2.9 2.9 0 0 0 .2-.87.756.756 0 0 0 .01-.15 2.917 2.917 0 0 0-.09-.73zm-2.01 1.49a1.276 1.276 0 0 1-.34.23 1.066 1.066 0 0 1-.46.08.988.988 0 0 1-.45-.1 1 1 0 0 1-.34-.24 1.063 1.063 0 0 1-.3-.65.756.756 0 0 1-.01-.15 1.066 1.066 0 0 1 .28-.72.433.433 0 0 1 .06-.07 1.14 1.14 0 0 1 .78-.32h.02a1.133 1.133 0 0 1 .85.42 1.1 1.1 0 0 1 .26.71v.02a.771.771 0 0 1-.02.15 1.076 1.076 0 0 1-.33.64z" class="cls-10" data-name="Path 80174"/></g><g id="Group_46610" data-name="Group 46610"><path id="Path_80175" d="M922.82 385.41a2.006 2.006 0 0 0-1.86-1.34 1.985 1.985 0 0 0-1.89 1.27 1.809 1.809 0 0 0-.14.69 1.086 1.086 0 0 0 .01.18 1.906 1.906 0 0 0 .28.89 1.981 1.981 0 0 0 1.67.97 2.012 2.012 0 0 0 1.72-.92h.01a2.1 2.1 0 0 0 .3-.87c0-.06.01-.12.01-.18a1.958 1.958 0 0 0-.11-.69zm-1.11 1.47a1.163 1.163 0 0 1-.41.25.886.886 0 0 1-.39.06.985.985 0 0 1-.38-.07 1.218 1.218 0 0 1-.41-.27 1.068 1.068 0 0 1-.3-.62.553.553 0 0 1-.02-.18 1.139 1.139 0 0 1 .27-.69 1.076 1.076 0 0 1 .86-.42h.02a1.132 1.132 0 0 1 .79.35.391.391 0 0 1 .08.1 1.06 1.06 0 0 1 .23.66v.04a.469.469 0 0 1-.02.17 1.012 1.012 0 0 1-.32.62z" class="cls-10" data-name="Path 80175"/><path id="Path_80176" d="M923.73 385.42a2.839 2.839 0 0 0-.73-1.35 2.909 2.909 0 0 0-2.02-.88h-.05a2.883 2.883 0 0 0-2.78 2.14 2.615 2.615 0 0 0-.1.69v.18a2.907 2.907 0 0 0 2.83 2.74h.05a2.859 2.859 0 0 0 2.66-1.77 2.961 2.961 0 0 0 .2-.88.969.969 0 0 0 .01-.17 2.726 2.726 0 0 0-.07-.7zm-2.02 1.46a1.163 1.163 0 0 1-.41.25.886.886 0 0 1-.39.06.985.985 0 0 1-.38-.07 1.218 1.218 0 0 1-.41-.27 1.068 1.068 0 0 1-.3-.62.553.553 0 0 1-.02-.18 1.139 1.139 0 0 1 .27-.69 1.076 1.076 0 0 1 .86-.42h.02a1.132 1.132 0 0 1 .79.35.391.391 0 0 1 .08.1 1.06 1.06 0 0 1 .23.66v.04a.469.469 0 0 1-.02.17 1.012 1.012 0 0 1-.32.62z" class="cls-10" data-name="Path 80176"/></g><path id="Line_5283" d="M0 0v4.001" class="cls-44" data-name="Line 5283" transform="translate(913.526 375.991)"/><g id="Group_46611" data-name="Group 46611"><path id="Line_5284" d="M0 4.69V0" data-name="Line 5284" transform="translate(921.92 367.5)"/><path id="Path_80177" d="M926.69 377.04a.876.876 0 0 1-.69.34.91.91 0 0 1-.54-.19l-4.03-3.16-6.94-5.42-7.96 6.08a.87.87 0 0 1-1.06-1.38l9.04-6.92 6.53 5.11v-4a.875.875 0 1 1 1.75 0v5.37l3.75 2.94a.876.876 0 0 1 .15 1.23z" class="cls-10" data-name="Path 80177"/></g></g></g></g></g></g></svg>